PathFileType	4	(X/Y/Z)	C:/Users/beibeiliu/ov580/test_trc/User3\sequence.35_training_dense_right.trc
DataRate	CameraRate	NumFrames	NumMarkers	Units	OrigDataRate	OrigDataStartFrame	OrigNumFrames
120	120	24	19	mm	120	1	83
Frame#	Time	ThumbCMC			ThumbMCP			ThumbIP			ThumbTip			IndexMCP			IndexPIP			IndexTip			MiddleMCP			MiddlePIP			MiddleTip			RingMCP			RingPIP			RingTip			PinkyMCP			PinkyPIP			PinkyTip			BackHand1			BackHand2			BackHand3	
		X0	Y0	Z0	X1	Y1	Z1	X2	Y2	Z2	X3	Y3	Z3	X4	Y4	Z4	X5	Y5	Z5	X6	Y6	Z6	X7	Y7	Z7	X8	Y8	Z8	X9	Y9	Z9	X10	Y10	Z10	X11	Y11	Z11	X12	Y12	Z12	X13	Y13	Z13	X14	Y14	Z14	X15	Y15	Z15	X16	Y16	Z16	X17	Y17	Z17	X18	Y18	Z18	
0	0	115.684	10.6195	3.0022	89.3236	2.19853	-15.8627	71.9433	-6.7682	-38.805	61.2459	-15.7421	-56.2142	123.561	19.2611	-74.7938	113.256	14.2732	-102.896	103.364	10.6116	-122.332	153.644	19.7141	-81.4469	147.433	16.3353	-109.367	147.078	7.04987	-140.683	171.281	13.0368	-73.7529	173.659	11.6191	-100.387	178.069	4.18521	-127.661	190.804	2.41786	-57.1237	202.334	0.302289	-77.1926	213.126	-4.03212	-95.5622	172.351	23.4764	-24.9281	174.367	29.6219	5.63043	141.375	31.4173	-9.06654	
1	0.00833333	111.916	9.98241	-2.07582	92.3308	0.860319	-15.7174	72.302	-7.70813	-40.8131	57.5518	-16.7542	-53.2344	122.479	18.0518	-75.055	110.282	15.5616	-102.456	105.637	9.06559	-126.839	148.701	19.5291	-80.6859	145.375	15.4572	-113.66	145.322	6.97786	-143.036	167.875	13.5643	-76.392	176.74	10.6978	-97.5789	175.654	4.07967	-127.495	188.954	1.87927	-57.0731	201.674	0.281446	-78.7461	208.329	-4.39384	-100.291	170.63	22.8473	-25.1735	172.993	28.3592	4.88706	139.294	31.748	-12.7104	
2	0.0166667	111.137	10.27	3.3167	92.2062	0.171938	-18.167	70.9006	-7.78804	-39.4983	59.9747	-16.4915	-55.1598	122.754	17.7961	-75.504	110.259	15.5375	-98.5194	106.786	9.799	-123.735	148.52	19.1973	-85.7534	144.974	15.1397	-113.032	145.483	5.80108	-144.091	170.618	12.6971	-74.8619	172.448	10.7906	-97.5084	176.07	3.17908	-125.853	189.292	3.22902	-58.1594	200.728	-0.938349	-76.1953	208.061	-3.98006	-96.2073	171.461	22.96	-26.1847	175.905	28.7667	2.16976	141.243	31.962	-11.2508	
3	0.025	110.011	10.4279	0.781468	90.2166	1.05051	-14.8575	71.5068	-7.49246	-40.7214	57.6433	-16.7977	-55.1141	121.062	18.4087	-72.9467	109.764	14.779	-102.184	107.668	9.86447	-125.03	152.783	19.2913	-83.3324	149.161	14.6774	-113.592	148.157	5.75308	-141.599	169.228	14.5754	-75.9957	174.004	11.5549	-101.128	174.72	3.67408	-126.103	189.155	3.37134	-56.5784	199.273	0.0651323	-74.1349	210.342	-4.19654	-99.1978	168.95	25.4626	-25.8658	174.294	27.3593	5.59381	137.456	31.3241	-14.1709	
4	0.0333333	109.014	11.7082	-0.317541	91.3861	1.59214	-16.1662	71.6772	-6.34275	-39.4517	59.0856	-16.2097	-56.6759	122.347	19.6866	-76.712	110.515	16.9142	-99.1504	108.446	9.65358	-124.113	148.602	20.6946	-79.5264	147.371	14.8441	-113.028	145.49	7.2875	-139.803	168.753	13.3831	-70.9119	171.316	11.7413	-101.411	175.208	4.51062	-127.44	190.278	2.43089	-53.6627	200.842	0.971243	-78.379	210.07	-5.24584	-99.1253	169.731	25.0411	-22.0819	177.403	29.0939	5.93525	143.01	31.3934	-9.85649	
5	0.0416667	110.479	10.9248	-1.50256	94.2915	1.45018	-17.8825	75.9291	-6.25409	-37.2181	63.169	-14.7738	-55.9748	121.04	19.3322	-74.889	115.912	15.196	-102.484	103.894	8.53203	-126.229	152.343	19.7409	-79.951	151.24	14.4799	-109.769	146.099	4.67133	-137.872	168.835	13.6272	-74.4701	175.291	10.7718	-98.2804	173.533	2.30261	-123.28	192.916	2.39646	-56.8586	198.737	0.352151	-75.611	211.492	-6.65681	-100.759	174.938	22.9461	-24.3044	175.523	26.9028	3.74856	143.764	30.9241	-13.2919	
6	0.05	114.04	11.3493	-1.1159	92.5407	4.62308	-17.9177	74.0949	-2.4881	-42.7209	63.8052	-11.8735	-59.4463	124.899	22.0534	-75.6225	113.997	17.5497	-102.692	113.116	8.12984	-126.222	151.612	21.9401	-81.097	150.447	14.3121	-109.917	147.472	0.367867	-138.963	174.11	14.0125	-74.3302	176.815	9.3254	-98.917	176.32	-1.37349	-123.364	189.954	2.02314	-55.3379	201.487	-3.45623	-78.7967	207.003	-12.1737	-103.048	173.337	25.0314	-20.6929	174.799	26.1679	7.05593	143.403	31.8476	-11.5705	
7	0.0583333	114.238	13.5743	3.38072	95.0334	7.25064	-19.8635	79.3523	0.889744	-44.9643	69.7105	-6.82265	-66.0632	125.391	28.5851	-75.1706	119.74	19.6947	-104.417	113.209	7.36221	-127.361	154.507	24.7787	-82.0935	150.428	16.1046	-110.834	147.663	-4.30106	-140.018	174.768	16.2441	-74.9063	176.589	9.9294	-100.682	170.049	-2.41956	-123.002	189.799	4.38089	-54.8905	195.981	-0.456162	-78.2433	200.286	-14.2257	-103.35	174.69	28.3136	-23.6311	177.387	26.8509	10.3386	143.34	35.7887	-6.57028	
8	0.0666667	118.324	16.7215	-0.337847	97.1078	10.8616	-19.4728	84.4863	5.78651	-44.2094	74.5622	-1.63682	-65.9914	128.962	32.6538	-74.5118	119.825	24.9513	-101.498	114.747	9.06572	-119.878	154.481	28.6641	-79.5212	146.845	15.6826	-110.908	137.394	-4.3991	-129.214	170.377	19.8578	-70.4357	169.135	11.078	-98.2702	160.374	-12.0113	-120.589	188.501	5.18996	-57.9058	187.146	-2.44907	-83.1622	185.146	-21.9413	-100.115	180.559	27.4743	-20.8861	182.609	24.39	8.26758	149.381	36.2299	-3.45481	
9	0.075	119.105	26.5756	6.06944	99.7092	21.6885	-19.9405	86.5503	19.4538	-44.7029	78.4353	13.2832	-69.006	135.857	33.6795	-73.407	121.642	26.5497	-96.3085	109.153	3.69389	-113.729	151.242	27.1054	-81.0815	139.023	10.1262	-106.943	120.47	-12.5647	-117.85	168.252	12.5963	-70.319	158.604	1.01496	-96.2199	139.656	-23.1918	-106.471	182.363	-4.80251	-58.7878	172.129	-13.6321	-82.0857	153.477	-31.1543	-91.8798	177.585	21.2328	-17.764	184.334	17.4042	7.74901	158.106	38.0618	-1.78174	
10	0.0833333	132.443	36.9333	-0.407461	111.003	41.5183	-26.4973	96.5725	40.4659	-51.8077	90.0313	31.2568	-74.5975	146.332	27.8025	-73.0352	125.867	17.1871	-99.5235	107.606	0.54339	-106.839	154.613	8.86971	-80.7716	135.064	-3.72264	-101.116	102.013	-18.6479	-99.7892	161.406	-8.86849	-72.6833	142.426	-19.6148	-90.6407	112.691	-31.6136	-86.573	166.046	-25.7119	-56.1498	146.97	-30.3285	-74.4024	116.972	-38.9831	-70.3374	179.98	4.56808	-16.3487	184.755	3.73172	12.1484	167.522	30.258	-4.60427	
11	0.0916667	144.168	41.34	-1.01308	130.106	45.7862	-29.0572	116.488	49.4321	-60.9507	105.415	43.2011	-82.5022	151.771	16.6769	-77.9207	129.035	8.71323	-99.1861	99.3831	4.91558	-100.879	152.56	-2.44633	-77.777	122.978	-10.3469	-96.3027	87.9931	-7.75132	-86.6813	149.995	-23.0931	-69.1289	124.127	-28.9655	-81.349	92.896	-22.4768	-68.8394	147.155	-34.2469	-55.0396	121.668	-38.0431	-66.1288	96.9901	-32.8078	-53.3602	177.148	-13.9532	-20.495	179.423	-9.98021	11.62	174.412	22.0271	-11.6716	
12	0.1	146.818	43.5902	-4.26739	133.089	49.1601	-31.2608	120.555	54.0257	-57.063	109.744	49.9532	-79.7881	150.723	15.5969	-81.9991	125.625	10.7826	-99.154	98.6189	14.4125	-97.7444	144.997	-4.69472	-82.406	112.678	-9.65178	-91.0536	83.6344	-2.92084	-74.4042	140.944	-23.627	-69.7029	110.432	-27.2372	-76.0479	86.539	-13.1289	-61.0314	138.375	-39.3823	-54.7203	113.128	-35.2018	-62.8399	91.7285	-22.2322	-48.132	175.332	-15.9138	-20.7133	174.72	-13.5459	9.96772	176.51	18.5997	-9.33	
13	0.108333	144.175	38.1003	-6.59031	128.374	49.2724	-31.6692	117.529	53.0719	-57.7641	104.904	51.6324	-77.7316	148.582	15.1414	-78.6346	121.732	12.7784	-98.4368	89.5588	16.4969	-89.302	144.008	-7.10742	-79.035	111.658	-6.6761	-90.235	81.1912	-0.208081	-63.8251	136.345	-24.8317	-71.0548	109.267	-19.7112	-76.5966	87.3219	-13.0089	-55.9723	136.689	-40.5671	-53.7623	107.673	-34.2791	-61.3922	92.424	-20.1581	-47.7095	172.426	-15.2403	-19.7209	173.258	-14.9999	7.07238	174.3	18.8978	-9.97377	
14	0.116667	141.863	38.4943	-5.92422	124.185	50.4114	-29.1194	112.792	51.2237	-56.6085	100.745	46.684	-81.782	145.831	19.0482	-82.2173	116.211	15.6665	-95.3237	89.8987	20.1674	-83.1166	140.769	-0.48017	-80.2573	109.844	-4.46186	-87.4713	84.0039	2.64712	-56.8978	136.328	-23.661	-70.1922	104.139	-19.9494	-72.6319	89.3132	-7.64005	-46.235	136.347	-37.993	-55.2439	108.411	-37.2586	-62.0288	91.8645	-18.0497	-41.4371	171.662	-18.8166	-21.7355	173.744	-13.9539	8.06243	171.585	17.0046	-13.0805	
15	0.125	143.77	39.6899	-6.23012	126.366	46.4043	-30.454	114.318	49.1039	-57.6725	104.125	42.8029	-79.0609	146.702	22.3591	-81.0665	115.449	21.764	-93.1968	89.9292	23.6875	-78.2191	139.78	0.315476	-81.1739	106.591	2.78833	-84.1144	86.597	6.55445	-54.4364	137.955	-17.2002	-72.3186	108.576	-21.8398	-73.2268	93.015	-8.6539	-43.6083	137.928	-37.2803	-57.3592	110.445	-34.1699	-62.3716	95.3841	-17.3369	-41.6876	174.869	-19.4849	-21.3917	176.242	-18.2618	5.71989	173.413	17.0176	-9.33713	
16	0.133333	147.868	36.1942	-4.16025	134.638	48.4988	-32.4138	126.856	46.1709	-62.4497	116.927	42.7311	-84.0174	148.649	22.9986	-80.9235	119.177	25.3351	-92.1192	91.4432	22.2265	-74.5284	145.279	2.42221	-79.0855	111.424	4.55059	-84.0438	89.4981	3.87382	-53.8736	143.502	-16.816	-68.8875	109.377	-15.8258	-71.9353	96.5223	-4.03989	-43.0083	141.598	-37.3446	-55.8878	112.181	-29.0276	-62.8162	99.0462	-13.8497	-41.345	177.128	-17.9149	-20.5655	177.882	-18.3653	9.78464	176.015	15.3753	-7.6792	
17	0.141667	156.866	38.5296	-5.5549	149.306	45.3655	-34.6882	143.463	51.2618	-61.6087	137.357	47.3156	-83.5711	153.175	17.6076	-80.4594	123.8	21.1789	-91.3617	98.1372	23.8583	-76.3734	145.531	-2.25593	-79.0795	112.242	2.87949	-82.0687	89.9857	10.5216	-54.1441	144.1	-17.6599	-70.6392	110.427	-16.5574	-70.3598	99.1587	-2.0917	-46.6526	141.443	-36.018	-58.1194	113.773	-29.2269	-63.0406	97.9713	-16.8259	-42.6905	178.491	-22.6366	-19.0556	178.505	-20.092	13.2892	180.539	15.2663	-7.59297	
18	0.15	159.743	39.9502	-2.50508	154.736	47.2504	-34.3655	149.165	55.0076	-60.634	143.312	52.8902	-85.697	156.922	16.3925	-79.3643	129.281	17.6214	-93.6191	97.5855	20.0655	-79.7935	147.212	-3.60011	-80.7573	117.604	-1.95595	-85.0246	90.4666	4.77594	-55.7921	145.085	-26.5496	-66.9044	114.567	-19.7835	-74.4222	98.7144	-4.00612	-47.2142	142.345	-40.2128	-53.7834	113.716	-30.8228	-63.2467	99.8173	-19.1135	-44.3759	178.15	-21.9867	-20.4481	175.947	-19.2518	11.1152	182.067	9.10902	-8.38814	
19	0.158333	155.941	38.1057	-5.63385	146.724	44.8609	-33.814	138.055	52.2805	-57.6362	128.7	52.1969	-82.8743	155.348	14.1121	-77.0387	126.7	16.1469	-95.042	99.0795	22.2961	-82.7547	144.286	-10.5314	-79.8708	112.91	-4.1717	-84.4597	89.5601	4.75529	-54.1529	139.801	-26.738	-70.1915	110.587	-19.0432	-73.5855	97.3253	-5.15984	-44.1515	140.08	-40.1976	-52.7537	112.39	-35.3301	-62.0543	98.3144	-14.5278	-42.3935	176.246	-22.7251	-22.8468	176.093	-22.8646	8.28195	179.427	7.9918	-6.79877	
20	0.166667	149.016	35.007	-5.78434	136.199	46.1385	-28.4625	123.954	55.3135	-57.3108	115.148	45.7458	-78.8751	150.079	12.4827	-77.373	121.978	19.396	-93.9102	95.6616	23.2666	-76.6369	144.114	-4.36356	-77.7122	110.492	-2.78719	-84.6584	89.2425	8.49895	-48.2265	137.323	-23.0457	-70.1283	105.848	-17.1634	-70.6006	94.9607	-9.56238	-42.3647	134.975	-42.6223	-54.9315	109.022	-36.4615	-60.1194	95.5617	-19.2812	-37.3668	173.555	-25.661	-18.037	174.895	-23.506	10.9737	175.471	13.5764	-12.1224	
21	0.175	149.226	37.6659	-5.23077	135.866	43.8292	-32.2904	124.696	51.8855	-60.0332	114.764	45.7714	-78.5993	146.741	17.7935	-80.0626	120.934	23.5795	-92.8708	92.7766	26.6569	-68.2338	139.153	-2.1224	-78.6419	105.069	5.89698	-79.8838	90.3482	10.0057	-44.0789	133.34	-22.2472	-70.2289	105.882	-16.4188	-69.2903	95.4455	-5.85805	-38.3366	131.82	-38.4853	-57.9534	107.076	-29.0825	-59.9563	96.8028	-13.7742	-36.5998	173.08	-18.954	-19.1721	172.645	-21.0014	10.0114	175.528	10.4063	-8.07519	
22	0.183333	155.767	36.3034	-4.40951	147.359	44.9937	-29.5262	142.542	49.2827	-63.1317	133.295	45.0323	-84.0366	151.054	18.9887	-80.2035	121.015	24.5202	-89.5314	97.6228	27.3722	-68.4698	142.939	-4.45364	-75.2354	109.188	3.81644	-79.1916	93.2873	12.597	-41.8929	137.228	-22.7131	-66.6628	106.538	-12.8101	-69.116	98.1776	-2.75905	-36.5206	133.744	-34.6452	-58.0635	107.333	-29.295	-60.1042	99.279	-7.98928	-38.2808	173.998	-21.9426	-23.2651	172.544	-20.188	12.3523	177.507	9.11614	-11.0559	
23	0.191667	159.086	38.5238	-3.06827	153.071	46.7062	-31.2182	148.475	51.3992	-58.4782	140.211	52.0084	-84.7448	155.984	13.3742	-77.0373	125.161	23.303	-92.7178	100.157	24.3711	-74.4979	147.239	-3.18707	-76.2878	112.401	2.37291	-81.3497	93.4296	11.565	-49.6777	138.591	-22.8497	-67.7596	106.341	-16.0988	-68.2454	101.172	1.12573	-38.3212	135.681	-38.453	-57.3845	112.939	-30.4578	-63.9549	100.79	-12.7578	-38.4974	173.078	-25.1919	-22.5911	175.271	-22.8051	12.3988	180.217	8.4967	-7.18772	
